<svg width="34" height="30" viewBox="0 0 34 30" fill="none" xmlns="http://www.w3.org/2000/svg">
<path d="M0.550459 13.6263C0.488057 13.3592 0.483471 13.0804 0.53705 12.8111C0.59063 12.5418 0.700965 12.2891 0.859682 12.0721C1.0184 11.8551 1.22133 11.6796 1.45306 11.5588C1.6848 11.4381 1.93925 11.3753 2.19711 11.3752H31.8029C32.0607 11.3753 32.3152 11.4381 32.5469 11.5588C32.7787 11.6796 32.9816 11.8551 33.1403 12.0721C33.299 12.2891 33.4094 12.5418 33.463 12.8111C33.5165 13.0804 33.5119 13.3592 33.4495 13.6263L30.3752 26.7543C30.1916 27.5385 29.7678 28.2347 29.1711 28.7323C28.5744 29.2298 27.839 29.5001 27.0819 29.5002H6.91808C6.16097 29.5001 5.42563 29.2298 4.82892 28.7323C4.23221 28.2347 3.80837 27.5385 3.62477 26.7543L0.550459 13.6282V13.6263Z" stroke="white" stroke-linecap="round" stroke-linejoin="round"/>
<path d="M6.81445 11.3751L13.6048 0.500069" stroke="white" stroke-linecap="round" stroke-linejoin="round"/>
<path d="M27.1848 11.3751L20.3945 0.500069" stroke="white" stroke-linecap="round" stroke-linejoin="round"/>
</svg>
