<svg width="35" height="29" viewBox="0 0 35 29" fill="none" xmlns="http://www.w3.org/2000/svg">
<path d="M14.8082 23.2499H24.3V3.99999C24.3 3.07173 23.9418 2.1815 23.3042 1.52512C22.6665 0.868747 21.8017 0.5 20.9 0.5H3.9C2.99826 0.5 2.13346 0.868747 1.49584 1.52512C0.858213 2.1815 0.5 3.07173 0.5 3.99999V21.4999C0.5 21.9641 0.679107 22.4092 0.997918 22.7374C1.31673 23.0655 1.74913 23.2499 2.2 23.2499H3.31252" stroke="white" stroke-linecap="round" stroke-linejoin="round"/>
<path d="M34.5008 21.4999V14.4999C34.5008 12.6434 33.7844 10.863 32.5091 9.55022C31.2339 8.23747 29.5043 7.49997 27.7008 7.49997H24.3008V23.2499H32.8008C33.2516 23.2499 33.6841 23.0655 34.0029 22.7374C34.3217 22.4092 34.5008 21.9641 34.5008 21.4999Z" stroke="white" stroke-linecap="round" stroke-linejoin="round"/>
<path d="M21.5 23.5C21.5 24.8261 22.0795 26.0979 23.1109 27.0355C24.1424 27.9732 25.5413 28.5 27 28.5C28.4587 28.5 29.8576 27.9732 30.8891 27.0355C31.9205 26.0979 32.5 24.8261 32.5 23.5H21.5Z" stroke="white" stroke-linecap="round" stroke-linejoin="round"/>
<path d="M9 28.5C12.0376 28.5 14.5 26.0376 14.5 23C14.5 19.9624 12.0376 17.5 9 17.5C5.96243 17.5 3.5 19.9624 3.5 23C3.5 26.0376 5.96243 28.5 9 28.5Z" stroke="white" stroke-linecap="round" stroke-linejoin="round"/>
</svg>
