<svg width="198" height="52" viewBox="0 0 198 52" fill="none" xmlns="http://www.w3.org/2000/svg">
<path d="M187.101 32.712L190.686 9.37573H198.001V42.2438H193.029V18.6727L189.395 42.2438H184.423L180.503 19.0014V42.2438H175.914V9.37573H183.228L187.101 32.712Z" fill="white"/>
<path d="M161.878 34.684C161.878 35.8735 162.117 36.7187 162.595 37.2195C163.105 37.6891 163.774 37.9239 164.603 37.9239C165.431 37.9239 166.085 37.6891 166.563 37.2195C167.073 36.7187 167.328 35.8735 167.328 34.684V16.9353C167.328 15.7458 167.073 14.9162 166.563 14.4467C166.085 13.9459 165.431 13.6954 164.603 13.6954C163.774 13.6954 163.105 13.9459 162.595 14.4467C162.117 14.9162 161.878 15.7458 161.878 16.9353V34.684ZM156.619 17.264C156.619 14.6032 157.304 12.5685 158.675 11.1599C160.045 9.71997 162.021 9 164.603 9C167.184 9 169.16 9.71997 170.531 11.1599C171.901 12.5685 172.586 14.6032 172.586 17.264V34.3553C172.586 37.0161 171.901 39.0664 170.531 40.5063C169.16 41.915 167.184 42.6193 164.603 42.6193C162.021 42.6193 160.045 41.915 158.675 40.5063C157.304 39.0664 156.619 37.0161 156.619 34.3553V17.264Z" fill="white"/>
<path d="M130.816 37.5483C131.103 37.5796 131.406 37.5953 131.724 37.5953C132.043 37.5953 132.346 37.5953 132.633 37.5953C133.461 37.5953 134.163 37.3918 134.736 36.9849C135.342 36.5779 135.645 35.7328 135.645 34.4493V9.37573H152.281V37.5483H154.959V46.0001H149.604V42.2438H136.171V46.0001H130.816V37.5483ZM140.903 34.0737C140.903 35.451 140.76 36.6092 140.473 37.5483H147.023V14.0712H140.903V34.0737Z" fill="white"/>
<path d="M117.636 42.2438H112.234V9.37573H116.919V29.0496L122.321 9.37573H128.919V42.2438H124.186V18.4379L117.636 42.2438Z" fill="white"/>
<path d="M97.0905 42.2438H91.8318V9.37573H108.421V42.2438H103.066V14.0712H97.0905V42.2438Z" fill="white"/>
<path d="M71.2275 37.5483C71.5144 37.5796 71.8172 37.5953 72.1359 37.5953C72.4546 37.5953 72.7574 37.5953 73.0442 37.5953C73.4585 37.5953 73.841 37.5483 74.1916 37.4544C74.574 37.3605 74.8927 37.1883 75.1477 36.9379C75.4346 36.6875 75.6417 36.3275 75.7692 35.858C75.9286 35.3884 76.0082 34.7937 76.0082 34.0737L68.3591 9.37573H73.6179L79.4025 28.627L84.1832 9.37573H89.442L82.5578 33.6042C81.9522 35.858 81.3307 37.5953 80.6933 38.8161C80.0878 40.0056 79.4344 40.8664 78.7332 41.3986C78.0321 41.8994 77.2671 42.1811 76.4385 42.2438C75.6417 42.3064 74.7493 42.3377 73.7613 42.3377C73.2832 42.3377 72.853 42.3377 72.4705 42.3377C72.0881 42.3377 71.6737 42.3064 71.2275 42.2438V37.5483Z" fill="white"/>
<path d="M56.8839 29.1435L55.2585 32.1486V42.2438H49.9998V9.37573H55.2585V23.6968L62.2383 9.37573H67.4015L60.087 24.0255L67.4015 42.2438H61.9993L56.8839 29.1435Z" fill="white"/>
<rect x="30.4919" y="16.7158" width="4.91642" height="22.9793" transform="rotate(90 30.4919 16.7158)" fill="white"/>
<rect x="35.4861" y="1.90735e-06" width="4.91642" height="32.9703" transform="rotate(90 35.4861 1.90735e-06)" fill="white"/>
<path d="M21.0003 0.377915L23.9167 4.25848L2.51797 16.6025L2.51797 11.1945L21.0003 0.377915Z" fill="white"/>
<path d="M16.9855 0.377915L14.0692 4.25848L35.4866 16.6019L35.4866 11.1938L16.9855 0.377915Z" fill="white"/>
<rect x="12.5076" y="44.2478" width="4.99551" height="22.6155" transform="rotate(-180 12.5076 44.2478)" fill="white"/>
<rect x="30.4919" y="44.2478" width="4.99551" height="22.6155" transform="rotate(-180 30.4919 44.2478)" fill="white"/>
<rect x="35.4861" y="47.0835" width="4.91642" height="32.9703" transform="rotate(90 35.4861 47.0835)" fill="white"/>
</svg>
